# xmcd CD database file
#
# Track frame offsets:
#	150
#	17186
#	36975
#	54311
#	81554
#	94402
#	116233
#	131825
#	150304
#	165855
#	183350
#	206942
#	227044
#	246184
#	257559
#
# Disc length: 3733 seconds
#
# Revision: 0
# Processed by: cddbd v1.5.2PL0 Copyright (c) Steve Scherf et al.
# Submitted via: CDex 1.70beta2
#
DISCID=cd0e930f
DTITLE=Massimo Farao trio - Jazz Piano trio - CD 1
DYEAR=2007
DGENRE=Jazz
TTITLE0=Penelope
TTITLE1=The shadow of your smile
TTITLE2=Al di la
TTITLE3=A man and a woman
TTITLE4=Caminito
TTITLE5=Dark eyes
TTITLE6=Copacabana
TTITLE7=El Bimbo
TTITLE8=El condol Pasa
TTITLE9=Charmaine
TTITLE10=Desafinado
TTITLE11=Beyond the reef
TTITLE12=Jealousy
TTITLE13=Perlenfischer Tango
TTITLE14=A summer place
EXTD=YEAR: 2007
EXTT0=
EXTT1=
EXTT2=
EXTT3=
EXTT4=
EXTT5=
EXTT6=
EXTT7=
EXTT8=
EXTT9=
EXTT10=
EXTT11=
EXTT12=
EXTT13=
EXTT14=
PLAYORDER=
